<svg xmlns="http://www.w3.org/2000/svg" viewBox="0 0 81 72" fill="none">
  <!-- Left Pill Stroke -->
  <path d="M 8.5 16.5 C 3 20 1 27 4.5 32.5 L 20.5 61 C 24 67 31 69 36.5 65.5 C 42 62 44 55 40.5 49.5 L 24.5 21 C 21 15.5 14 13 8.5 16.5 Z" fill="#00C853"/>
  
  <!-- Right Wing Stroke with Beveled/Angled Top -->
  <path d="M 37.5 53 C 35.5 56 36 60 39.5 64 C 43 68 47 71 52 71 C 56 71 58 68 60 65 L 78.5 17 C 80 13 79.5 8 76.5 4 C 74.5 1.5 71 0.5 67 1 C 63 1.5 60.5 4 58.5 7.5 L 37.5 53 Z" fill="#00C853"/>
</svg>